<?xml version="1.0" encoding="UTF-8"?>
<svg version="1.1" xmlns="http://www.w3.org/2000/svg" width="57" height="53">
<path d="M0 0 C18.81 0 37.62 0 57 0 C57 17.49 57 34.98 57 53 C38.19 53 19.38 53 0 53 C0 35.51 0 18.02 0 0 Z " fill="#FCFCFE" transform="translate(0,0)"/>
<path d="M0 0 C0.66 0 1.32 0 2 0 C3.625 2 3.625 2 5 4 C7.64 3.67 10.28 3.34 13 3 C12.25 7.75 12.25 7.75 10 10 C9.01 10 8.02 10 7 10 C6.9175 10.99 6.835 11.98 6.75 13 C6.13691993 17.47456948 4.18031955 21.09570685 2 25 C2.99 25.33 3.98 25.66 5 26 C4.67 26.66 4.34 27.32 4 28 C2.9275 27.95875 1.855 27.9175 0.75 27.875 C-2.80660631 27.7316289 -2.80660631 27.7316289 -4.9609375 28.984375 C-8.51295572 30.75357948 -12.13032749 30.55760906 -16 30 C-19.375 28.1875 -19.375 28.1875 -22 26 C-22.5775 25.525625 -23.155 25.05125 -23.75 24.5625 C-26.78939004 20.76326245 -27.44283012 16.82266406 -27.32421875 11.99609375 C-26.78380244 8.66895238 -25.11883057 6.54259669 -23 4 C-19.36280395 1.57520264 -17.14296518 1.61337423 -12.8125 1.375 C-11.54019531 1.30023438 -10.26789062 1.22546875 -8.95703125 1.1484375 C-7.49330078 1.07496094 -7.49330078 1.07496094 -6 1 C-5.82597656 1.90685547 -5.82597656 1.90685547 -5.6484375 2.83203125 C-4.66282867 6.12728968 -2.53711655 7.76492113 0 10 C0.99 10.33 1.98 10.66 3 11 C2.505 10.484375 2.01 9.96875 1.5 9.4375 C-0.49649241 6.19319983 -0.21564385 3.73782666 0 0 Z " fill="#5571FE" transform="translate(38,14)"/>
<path d="M0 0 C5.82898843 0.20452591 9.05719665 1.07977156 13.32421875 5.1015625 C16.29137847 8.46296023 18.67872872 12.17372866 21 16 C16.49128985 15.27031096 13.71525641 13.67844067 10 11 C10.33 12.32 10.66 13.64 11 15 C8.34303932 14.84817368 6.55765476 14.52675976 4.58984375 12.66796875 C0.79319352 8.11862985 -0.12715225 5.84900348 0 0 Z " fill="#F4F6FE" transform="translate(14,25)"/>
<path d="M0 0 C1.875 0.25 1.875 0.25 4 1 C5.25 3.0625 5.25 3.0625 6 5 C4.68 5 3.36 5 2 5 C1.34 4.34 0.68 3.68 0 3 C0 2.01 0 1.02 0 0 Z " fill="#CFD7FE" transform="translate(32,26)"/>
</svg>
